<svg width="96" height="104" viewBox="0 0 96 104" fill="none" xmlns="http://www.w3.org/2000/svg">
<g filter="url(#filter0_d_4_2)">
<path fill-rule="evenodd" clip-rule="evenodd" d="M42.972 1H52.963C69.517 1 82.936 14.43 82.936 31V41C82.936 57.568 69.516 71 52.963 71H42.973C26.419 71 12.999 57.568 12.999 41V31C12.999 14.431 26.419 1 42.972 1V1Z" fill="url(#paint0_linear_4_2)"/>
</g>
<path d="M57.0538 29.0697L62.9996 36.1159L56.9456 43.0693L57.0538 29.0697ZM38.9462 42.9303L33.0004 35.8841L39.0544 28.9307" fill="white"/>
<path d="M44.8919 49.9764L51.1081 22.0236M38.9462 42.9303L33.0004 35.8841L39.0544 28.9307M57.0538 29.0697L62.9996 36.1159L56.9456 43.0693L57.0538 29.0697Z" stroke="white" stroke-width="2" stroke-linecap="round" stroke-linejoin="round"/>
<defs>
<filter id="filter0_d_4_2" x="8.99899" y="1" width="77.937" height="78" filterUnits="userSpaceOnUse" color-interpolation-filters="sRGB">
<feFlood flood-opacity="0" result="BackgroundImageFix"/>
<feColorMatrix in="SourceAlpha" type="matrix" values="0 0 0 0 0 0 0 0 0 0 0 0 0 0 0 0 0 0 127 0" result="hardAlpha"/>
<feOffset dy="4"/>
<feGaussianBlur stdDeviation="2"/>
<feComposite in2="hardAlpha" operator="out"/>
<feColorMatrix type="matrix" values="0 0 0 0 1 0 0 0 0 1 0 0 0 0 1 0 0 0 1 0"/>
<feBlend mode="normal" in2="BackgroundImageFix" result="effect1_dropShadow_4_2"/>
<feBlend mode="normal" in="SourceGraphic" in2="effect1_dropShadow_4_2" result="shape"/>
</filter>
<linearGradient id="paint0_linear_4_2" x1="53.376" y1="113.413" x2="125.385" y2="30.651" gradientUnits="userSpaceOnUse">
<stop stop-color="#673EDC"/>
<stop offset="1" stop-color="#E0E7FF"/>
</linearGradient>
</defs>
</svg>
