<svg width="22" height="22" viewBox="0 0 24 24" fill="none" xmlns="http://www.w3.org/2000/svg">
<path d="M19.1296 11.7509C18.6405 11.7509 18.2328 11.341 18.2328 10.8491V2.70573C18.2328 1.83118 18.1784 1.77667 17.3361 1.77667H2.68992C2.20091 1.77667 1.82029 2.15924 1.82029 2.65123V21.37C1.82029 22.1079 1.9289 22.2171 2.6626 22.2171H17.2545C17.7435 22.2171 18.1512 22.5997 18.1512 23.0916C18.1512 23.5834 17.7437 23.9934 17.2545 23.9934H2.55391C1.22239 23.9934 0.325633 23.365 0.0811246 22.2445C0.0267253 21.9712 0.0267253 21.698 0.0267253 21.4247C0.0271043 15.221 0.0543988 8.99053 0 2.78737C0 1.83084 0.217408 1.06574 0.815237 0.546485C1.22275 0.163921 1.79346 0 2.33687 0H17.7439C18.3147 0 18.8581 0.19138 19.2929 0.573958C19.8907 1.12044 20.0808 1.91302 20.0808 2.86935C20.0264 5.7387 20.0537 8.06142 20.0537 10.8214C20.0537 11.3405 19.646 11.7505 19.1297 11.7505L19.1296 11.7509Z" fill="#2C1CE1"/>
<path d="M23.6944 23.6927C23.2869 24.1025 22.6346 24.1025 22.2271 23.6927C21.0315 22.4903 19.8359 21.2879 18.749 20.1676C17.8523 20.3043 17.1185 20.5502 16.4121 20.5229C14.3741 20.4682 12.7437 18.774 12.6622 16.6698C12.5807 14.6203 14.1568 12.8714 16.3033 12.6255C18.1783 12.4069 20.0532 13.828 20.4608 15.7955C20.6238 16.6153 20.5423 17.4352 20.189 18.1729C20.0531 18.4462 20.1075 18.5827 20.2976 18.8013C21.4389 19.9218 22.5529 21.0694 23.6942 22.1899C24.1019 22.627 24.1019 23.2828 23.6944 23.6927ZM16.5751 18.9105C17.9066 18.9105 18.9119 17.9268 18.9391 16.6151C18.9391 15.3035 17.9337 14.265 16.6566 14.265C15.3523 14.265 14.3197 15.2761 14.2926 16.5604C14.2655 17.8721 15.2437 18.9105 16.5751 18.9105Z" fill="#2C1CE1"/>
<path d="M14.5644 10.4664V12.2426H3.45068V10.4664H14.5644Z" fill="#2C1CE1"/>
<path d="M3.42334 7.10536V5.32922H14.5371V7.10536H3.42334Z" fill="#2C1CE1"/>
</svg>
