<svg width="96" height="104" viewBox="0 0 96 104" fill="none" xmlns="http://www.w3.org/2000/svg">
<path fill-rule="evenodd" clip-rule="evenodd" d="M42.972 1H52.963C69.517 1 82.936 14.43 82.936 31V41C82.936 57.568 69.516 71 52.963 71H42.973C26.419 71 12.999 57.568 12.999 41V31C12.999 14.431 26.419 1 42.972 1Z" fill="#75DCF8"/>
<g filter="url(#filter0_d_16_229)">
<path fill-rule="evenodd" clip-rule="evenodd" d="M42.972 1H52.963C69.517 1 82.936 14.43 82.936 31V41C82.936 57.568 69.516 71 52.963 71H42.973C26.419 71 12.999 57.568 12.999 41V31C12.999 14.431 26.419 1 42.972 1Z" fill="url(#paint0_linear_16_229)"/>
</g>
<path d="M48.073 23.9354C42.7637 23.9354 38.4597 28.1584 38.4597 33.3679C38.4597 37.2109 40.8023 40.5167 44.1625 41.9868V44.7188H51.9835V41.9868C55.3437 40.5167 57.6862 37.2109 57.6862 33.3679C57.6862 28.1584 53.3823 23.9354 48.073 23.9354Z" fill="#F7D04A"/>
<path d="M40.7436 33.3679C40.7436 28.5372 44.4492 24.5554 49.2266 24.0018C48.852 23.9584 48.4711 23.9354 48.0846 23.9354C42.7689 23.9354 38.4597 28.1584 38.4597 33.3679C38.4597 37.2109 40.8051 40.5167 44.1694 41.9868V44.7188H46.4532V41.9868C43.0889 40.5167 40.7436 37.2109 40.7436 33.3679Z" fill="#F3B41B"/>
<path d="M50.7647 30.3595C52.0389 30.3595 53.0719 29.3444 53.0719 28.0922C53.0719 26.84 52.0389 25.8249 50.7647 25.8249C49.4905 25.8249 48.4575 26.84 48.4575 28.0922C48.4575 29.3444 49.4905 30.3595 50.7647 30.3595Z" fill="#FEE7BE"/>
<path d="M47.8806 23.1797C45.7628 23.1797 43.7321 23.8211 42.0079 25.0346C41.7332 25.2279 41.6679 25.6066 41.8619 25.8803C42.0561 26.154 42.436 26.2191 42.7107 26.0258C44.2281 24.9578 46.0159 24.3933 47.8807 24.3933C52.828 24.3933 56.8528 28.4038 56.8528 33.3334C56.8528 36.8595 54.7635 40.0662 51.5301 41.5026C51.3105 41.6002 51.1691 41.8173 51.1691 42.0569V43.8917H50.4431V35.6675H51.532C52.2948 35.6675 52.9644 35.209 53.2377 34.4993C53.511 33.7897 53.3212 33.0026 52.7541 32.4941L52.2742 32.0637C51.7304 31.5759 50.9772 31.4572 50.3088 31.7538C49.6403 32.0505 49.2251 32.6877 49.2251 33.4167V34.4539H46.5361V33.4167C46.5361 32.6876 46.1208 32.0505 45.4525 31.7538C44.784 31.4571 44.0309 31.5759 43.487 32.0637L43.0072 32.4941C42.4402 33.0026 42.2504 33.7897 42.5236 34.4993C42.7969 35.209 43.4665 35.6675 44.2293 35.6675H45.3182V43.8917H44.5921V42.0569C44.5921 41.8174 44.4507 41.6002 44.2311 41.5027C40.9977 40.0663 38.9084 36.8596 38.9084 33.3335C38.9084 31.2693 39.594 29.3307 40.8913 27.7272C41.1023 27.4663 41.0612 27.0843 40.7994 26.874C40.5377 26.6639 40.1542 26.7048 39.9432 26.9656C38.4906 28.7612 37.6906 31.0227 37.6906 33.3335C37.6906 37.2054 39.9083 40.7379 43.3742 42.4422V43.8917H42.0345C41.6982 43.8917 41.4255 44.1634 41.4255 44.4985V51.0519C41.4255 53.3941 43.3378 55.2995 45.6883 55.2995H50.0729C52.4234 55.2995 54.3357 53.3941 54.3357 51.0519V49.3529C54.3357 49.0178 54.0631 48.7461 53.7267 48.7461C53.3904 48.7461 53.1177 49.0178 53.1177 49.3529V50.4451H42.6435V48.3415H51.4533C51.7896 48.3415 52.0622 48.0699 52.0622 47.7347C52.0622 47.3996 51.7896 47.128 51.4533 47.128H42.6435V45.1053H53.1177V46.1167C53.1177 46.4518 53.3904 46.7235 53.7267 46.7235C54.0631 46.7235 54.3357 46.4518 54.3357 46.1167V44.4985C54.3357 44.1634 54.0631 43.8917 53.7267 43.8917H52.387V42.4422C55.8529 40.7378 58.0707 37.2053 58.0707 33.3335C58.0707 27.7346 53.4994 23.1797 47.8806 23.1797ZM50.4431 33.4167C50.4431 33.051 50.7196 32.9 50.8043 32.8623C50.8891 32.8248 51.1867 32.7211 51.4594 32.9656L51.9393 33.396C52.2279 33.6549 52.1356 33.973 52.1005 34.0645C52.0653 34.1558 51.9203 34.4539 51.532 34.4539H50.4431V33.4167ZM50.0729 54.0859H45.6883C44.2178 54.0859 42.9877 53.0419 42.7048 51.6587H53.0566C52.7735 53.0419 51.5434 54.0859 50.0729 54.0859ZM44.2292 34.4539C43.6801 34.4539 43.4114 33.7641 43.8218 33.3961L44.3016 32.9657C44.6896 32.6178 45.3181 32.9015 45.3181 33.4167V34.4539H44.2292ZM46.5361 35.6675H49.2251V43.8917H46.5361V35.6675Z" fill="#FDFDFE"/>
<path d="M47.8806 20.5346C48.1992 20.5346 48.4574 20.2674 48.4574 19.9379V16.5967C48.4574 16.2671 48.1992 16 47.8806 16C47.5621 16 47.3038 16.2671 47.3038 16.5967V19.9379C47.3038 20.2674 47.5621 20.5346 47.8806 20.5346Z" fill="#FBFCFE"/>
<path d="M40.4904 22.1228C40.6553 22.4319 41.0431 22.5198 41.3093 22.308C41.5365 22.1271 41.6031 21.7798 41.4623 21.5156L39.8913 18.571C39.7364 18.2807 39.3932 18.1811 39.1248 18.3488C38.8565 18.5164 38.7646 18.8878 38.9195 19.1782L40.4904 22.1228Z" fill="#FBFCFE"/>
<path d="M36.2292 26.1623L33.2337 24.3979C32.9382 24.2238 32.5604 24.3272 32.39 24.6285C32.2194 24.9299 32.3206 25.3154 32.616 25.4894L35.6115 27.2538C35.9266 27.4394 36.3407 27.2995 36.4863 26.9604C36.611 26.6702 36.4979 26.3205 36.2292 26.1623Z" fill="#FBFCFE"/>
<path d="M34.6144 33.5714C34.6144 33.2584 34.3426 33.0046 34.0072 33.0046H30.6072C30.2718 33.0046 30 33.2584 30 33.5714C30 33.8845 30.2718 34.1382 30.6072 34.1382H34.0072C34.3425 34.1382 34.6144 33.8845 34.6144 33.5714Z" fill="#FBFCFE"/>
<path d="M35.6104 39.8804L32.6149 41.4242C32.3462 41.5627 32.2331 41.8686 32.3578 42.1226C32.5035 42.4193 32.9175 42.5418 33.2326 42.3793L36.2281 40.8355C36.5235 40.6832 36.6247 40.346 36.4541 40.0823C36.2835 39.8186 35.9058 39.7282 35.6104 39.8804Z" fill="#FBFCFE"/>
<path d="M63.1464 41.4243L60.1509 39.8804C59.8555 39.7281 59.4777 39.8186 59.3072 40.0823C59.1367 40.346 59.2379 40.6832 59.5333 40.8355L62.5287 42.3793C62.8438 42.5418 63.2579 42.4193 63.4035 42.1226C63.5283 41.8687 63.4151 41.5628 63.1464 41.4243Z" fill="#FBFCFE"/>
<path d="M65.1542 33.0046H61.7541C61.4188 33.0046 61.147 33.2584 61.147 33.5714C61.147 33.8845 61.4188 34.1382 61.7541 34.1382H65.1542C65.4895 34.1382 65.7613 33.8845 65.7613 33.5714C65.7613 33.2584 65.4895 33.0046 65.1542 33.0046Z" fill="#FBFCFE"/>
<path d="M59.8425 27.3364C59.9472 27.3364 60.0535 27.3092 60.1507 27.2519L63.1454 25.4886C63.4407 25.3147 63.5419 24.9295 63.3714 24.6283C63.2009 24.3271 62.8232 24.2239 62.5279 24.3978L59.5332 26.1611C59.2379 26.335 59.1367 26.7202 59.3072 27.0214C59.4216 27.2235 59.6291 27.3364 59.8425 27.3364Z" fill="#FBFCFE"/>
<path d="M54.5459 22.3444C54.8486 22.51 55.2468 22.4085 55.4213 22.1222L57.2156 19.178C57.3926 18.8877 57.2876 18.5164 56.9811 18.3488C56.6746 18.1811 56.2826 18.2806 56.1057 18.571L54.3113 21.5151C54.1343 21.8054 54.2393 22.1767 54.5459 22.3444Z" fill="#FBFCFE"/>
<defs>
<filter id="filter0_d_16_229" x="8.99902" y="1" width="77.937" height="78" filterUnits="userSpaceOnUse" color-interpolation-filters="sRGB">
<feFlood flood-opacity="0" result="BackgroundImageFix"/>
<feColorMatrix in="SourceAlpha" type="matrix" values="0 0 0 0 0 0 0 0 0 0 0 0 0 0 0 0 0 0 127 0" result="hardAlpha"/>
<feOffset dy="4"/>
<feGaussianBlur stdDeviation="2"/>
<feComposite in2="hardAlpha" operator="out"/>
<feColorMatrix type="matrix" values="0 0 0 0 1 0 0 0 0 1 0 0 0 0 1 0 0 0 1 0"/>
<feBlend mode="normal" in2="BackgroundImageFix" result="effect1_dropShadow_16_229"/>
<feBlend mode="normal" in="SourceGraphic" in2="effect1_dropShadow_16_229" result="shape"/>
</filter>
<linearGradient id="paint0_linear_16_229" x1="53.376" y1="113.413" x2="125.385" y2="30.651" gradientUnits="userSpaceOnUse">
<stop stop-color="#4FA25C"/>
<stop offset="1" stop-color="#B7FF77"/>
</linearGradient>
</defs>
</svg>
