<svg width="96" height="104" viewBox="0 0 96 104" fill="none" xmlns="http://www.w3.org/2000/svg">
<path fill-rule="evenodd" clip-rule="evenodd" d="M42.972 1H52.963C69.517 1 82.936 14.43 82.936 31V41C82.936 57.568 69.516 71 52.963 71H42.973C26.419 71 12.999 57.568 12.999 41V31C12.999 14.431 26.419 1 42.972 1Z" fill="#9CAFF4"/>
<path fill-rule="evenodd" clip-rule="evenodd" d="M42.972 1H52.963C69.517 1 82.936 14.43 82.936 31V41C82.936 57.568 69.516 71 52.963 71H42.973C26.419 71 12.999 57.568 12.999 41V31C12.999 14.431 26.419 1 42.972 1Z" fill="url(#paint0_linear_120_2)"/>
<path d="M61.9028 43.275C61.2392 42.6477 60.4036 42.2062 59.489 41.9996C58.5745 41.793 57.6169 41.8295 56.7231 42.105L42.5759 28.79C43.8244 25.395 40.4509 21.835 36.7322 22.59C36.6037 22.6153 36.4897 22.6845 36.4122 22.7842C36.3347 22.8839 36.2992 23.0071 36.3125 23.13C36.3284 23.2434 36.3803 23.3497 36.4612 23.435L38.5862 25.435L37.9594 27.55L35.6909 28.12L33.5659 26.12C33.4506 26.0327 33.3044 25.9898 33.1569 26C33.0444 26.0105 32.9385 26.0545 32.8544 26.1255C32.7704 26.1965 32.7125 26.2909 32.6894 26.395C31.8659 29.895 35.7175 33.1 39.2875 31.895L53.424 45.21C52.1703 48.605 55.549 52.165 59.2678 51.41C59.3963 51.3847 59.5102 51.3155 59.5877 51.2158C59.6652 51.1161 59.7008 50.9929 59.6875 50.87C59.6715 50.7566 59.6197 50.6503 59.5387 50.565L57.4137 48.565L58.0406 46.45L60.309 45.88L62.434 47.88C62.5406 47.965 62.6722 48.0174 62.8112 48.03C62.9363 48.0321 63.0581 47.9927 63.1553 47.9186C63.2525 47.8445 63.3187 47.7406 63.3425 47.625C63.5047 46.8444 63.458 46.0382 63.2067 45.2788C62.9553 44.5194 62.5073 43.8308 61.9028 43.275Z" fill="#F7F0F0"/>
<path d="M49.3175 33.325L51.91 35.765C51.9594 35.8119 52.0181 35.8491 52.0829 35.8745C52.1476 35.8998 52.217 35.9129 52.2872 35.9129C52.3573 35.9129 52.4267 35.8998 52.4915 35.8745C52.5562 35.8491 52.615 35.8119 52.6644 35.765L56.5637 32.085C60.2187 33.305 64.1075 30.045 63.2734 26.5C63.2502 26.3959 63.1924 26.3015 63.1084 26.2305C63.0243 26.1595 62.9183 26.1155 62.8059 26.105C62.7279 26.1001 62.6496 26.1099 62.5757 26.134C62.5018 26.158 62.4337 26.1958 62.3756 26.245L60.2506 28.245L57.9344 27.66L57.2915 25.5L59.4165 23.5C59.469 23.4456 59.5088 23.3814 59.5335 23.3117C59.5582 23.242 59.5672 23.1682 59.56 23.095C59.5564 22.9859 59.515 22.881 59.4421 22.7961C59.3692 22.7112 59.2688 22.6512 59.1562 22.625C55.3631 21.855 51.9578 25.5 53.2275 28.93L49.3175 32.615C49.2677 32.6615 49.2282 32.7168 49.2012 32.7777C49.1742 32.8387 49.1603 32.904 49.1603 32.97C49.1603 33.036 49.1742 33.1014 49.2012 33.1623C49.2282 33.2232 49.2677 33.2785 49.3175 33.325Z" fill="#F7F0F0"/>
<path d="M44.0953 38.24C44.0459 38.1931 43.9872 38.1559 43.9224 38.1306C43.8577 38.1052 43.7882 38.0921 43.7181 38.0921C43.648 38.0921 43.5785 38.1052 43.5138 38.1306C43.4491 38.1559 43.3903 38.1931 43.3409 38.24L39.1494 42.185C34.1875 40.78 30.4369 46.545 34.1184 50.065C37.8 53.585 44.005 50 42.4962 45.33L46.6878 41.39C46.7376 41.3435 46.7771 41.2882 46.8041 41.2273C46.8311 41.1664 46.8449 41.101 46.8449 41.035C46.8449 40.969 46.8311 40.9036 46.8041 40.8427C46.7771 40.7818 46.7376 40.7265 46.6878 40.68L44.0953 38.24ZM40.3765 46.295L39.7922 48.35C39.7681 48.4352 39.7206 48.5129 39.6544 48.5753C39.5881 48.6376 39.5055 48.6824 39.415 48.705L37.2315 49.255C37.1388 49.2809 37.0403 49.2825 36.9467 49.2596C36.8531 49.2367 36.7679 49.1901 36.7003 49.125L35.1065 47.625C35.0373 47.5614 34.9879 47.4812 34.9636 47.3931C34.9392 47.305 34.9409 47.2123 34.9684 47.125L35.5528 45.07C35.5768 44.9848 35.6244 44.9071 35.6906 44.8447C35.7569 44.7824 35.8394 44.7376 35.93 44.715L38.1134 44.165C38.2062 44.1391 38.3046 44.1375 38.3983 44.1604C38.4919 44.1833 38.5771 44.2299 38.6447 44.295L40.2384 45.795C40.3076 45.8586 40.3571 45.9388 40.3814 46.0269C40.4058 46.115 40.4041 46.2077 40.3765 46.295Z" fill="#F7F0F0"/>
<defs>
<linearGradient id="paint0_linear_120_2" x1="25.5" y1="11" x2="111.5" y2="94.5" gradientUnits="userSpaceOnUse">
<stop stop-color="#F376C8"/>
<stop offset="1" stop-color="#1F4AE8"/>
</linearGradient>
</defs>
</svg>
